# xmcd
#
# Track frame offsets: 
#        150
#        9940
#        28455
#        45308
#        63082
#        76204
#        99126
#        119159
#        132899
#        145979
#        167315
#        172966
#        186282
#        205170
#        219599
#        233329
#        250590
#        267963
#
# Disc length: 3843 seconds
#
# Revision: 0
# Processed by: cddbd v1.5.2PL0 Copyright (c) Steve Scherf et al.
# Submitted via: ExactAudioCopy v0.99pb4
#
DISCID=e50f0112
DTITLE=Labi Siffre - Crying Laughing Loving Lying
DYEAR=1972
DGENRE=Soul
TTITLE0=Saved
TTITLE1=Cannock Chase
TTITLE2=Fool Me A Goodnight
TTITLE3=It Must Be Love
TTITLE4=Gimme Some More
TTITLE5=Blue Lady
TTITLE6=Love Oh Love Oh Love
TTITLE7=Crying, Laughing, Loving, Lying
TTITLE8=Hotel Room Song
TTITLE9=My Song
TTITLE10=Till Forever
TTITLE11=Come On Michael
TTITLE12=You Make It Easy (Bonus)
TTITLE13=Good Old Days (Bonus)
TTITLE14=Pristine Verses (Bonus)
TTITLE15=You'll Let Me Know (Bonus)
TTITLE16=Oh Me Oh My Mr City Goodbye (Bonus)
TTITLE17=For The Lovin' (Bonus)
EXTD=
EXTT0=
EXTT1=
EXTT2=
EXTT3=
EXTT4=
EXTT5=
EXTT6=
EXTT7=
EXTT8=
EXTT9=
EXTT10=
EXTT11=
EXTT12=
EXTT13=
EXTT14=
EXTT15=
EXTT16=
EXTT17=
PLAYORDER=
